<svg id="Layer_1" data-name="Layer 1" xmlns="http://www.w3.org/2000/svg" viewBox="0 0 168 177.74"><defs><style>.cls-1{opacity:0.2;}.cls-2{fill:#fff;}</style></defs><g class="cls-1"><path class="cls-2" d="M907,590.09v83.82A10.09,10.09,0,0,1,896.91,684H749.09A10.09,10.09,0,0,1,739,673.91V590.09A10.09,10.09,0,0,1,749.09,580H784.9a37.92,37.92,0,0,1,11.68-27.42l-37.05-37.05a5,5,0,0,1,0-7.06l.4-.4a5,5,0,0,1,7.06,0l38.27,38.27a38.06,38.06,0,0,1,35.28,0l38.62-38.61a5,5,0,1,1,7.06,7.06L848.8,552.2c.33.3.65.61,1,.93A37.89,37.89,0,0,1,860.9,580h36A10.09,10.09,0,0,1,907,590.09Z" transform="translate(-739 -506.26)"/></g></svg>