<svg id="Layer_1" data-name="Layer 1" xmlns="http://www.w3.org/2000/svg" xmlns:xlink="http://www.w3.org/1999/xlink" viewBox="0 0 168 177.94"><defs><style>.cls-1{fill:url(#linear-gradient);}</style><linearGradient id="linear-gradient" x1="-4.17" y1="20.67" x2="167.83" y2="166.67" gradientUnits="userSpaceOnUse"><stop offset="0" stop-color="#81fff2"/><stop offset="1" stop-color="#6facff"/></linearGradient></defs><path class="cls-1" d="M168,83.83v83.82a10.09,10.09,0,0,1-10.09,10.09H10.09A10.09,10.09,0,0,1,0,167.65H0V83.83A10.09,10.09,0,0,1,10.09,73.74H45.9A37.94,37.94,0,0,1,57.58,46.32l-37-37a5,5,0,0,1,0-7.06l.4-.4a5,5,0,0,1,7.06,0L66.26,40.08a38.06,38.06,0,0,1,35.28,0L140.16,1.47a5,5,0,1,1,7.06,7.06L109.8,45.94l1,.93a37.86,37.86,0,0,1,11.1,26.87h36A10.09,10.09,0,0,1,168,83.82Z" transform="translate(0 0.2)"/></svg>